<svg xml:space="preserve" viewBox="0 0 2400 2904" xmlns:xlink="http://www.w3.org/1999/xlink" xmlns="http://www.w3.org/2000/svg" id="Layer_1" version="1.1" x="0" y="0" width="2400" height="2904"  >
<rect height="2904" width="2400" fill="#FFFFFF"></rect>
<g>
	<path d="M1200,2824c-8.836,0-16-7.162-16-16V96c0-8.836,7.164-16,16-16c8.837,0,16,7.164,16,16v2712
		C1216,2816.838,1208.837,2824,1200,2824z"></path>
	<path d="M2304,1468H96c-8.836,0-16-7.164-16-16s7.164-16,16-16h2208c8.836,0,16,7.164,16,16S2312.836,1468,2304,1468z"></path>
	<rect height="2904" width="2400" fill="none"></rect>
	<g>
		<g>
			<defs>
				<rect height="2904" width="2400" id="SVGID_1_"></rect>
			</defs>
			<clipPath id="SVGID_2_">
				<use overflow="visible" xlink:href="#SVGID_1_"></use>
			</clipPath>
			<path d="M1128.465,1314.169h-47.832v-47.833c0-4.418-3.581-8-8-8c-4.418,0-8,3.582-8,8v47.833
				h-45.836c-4.418,0-8,3.582-8,8s3.582,8,8,8h45.836v45.834c0,4.419,3.582,8,8,8c4.419,0,8-3.581,8-8v-45.834h47.832
				c4.419,0,8-3.582,8-8S1132.884,1314.169,1128.465,1314.169" clip-path="url(#SVGID_2_)"></path>
		</g>
		<g>
			<defs>
				<rect height="2904" width="2400" id="SVGID_3_"></rect>
			</defs>
			<clipPath id="SVGID_4_">
				<use overflow="visible" xlink:href="#SVGID_3_"></use>
			</clipPath>
			<path d="M1401.659,1373.96l-54.832-112.596c-1.34-2.752-4.132-4.498-7.193-4.498
				c-3.063,0-5.852,1.746-7.191,4.498l-54.832,112.596c-1.206,2.478-1.052,5.409,0.409,7.744c1.459,2.335,4.027,3.759,6.782,3.759
				h109.664c2.754,0,5.323-1.424,6.784-3.759C1402.71,1379.369,1402.864,1376.438,1401.659,1373.96 M1297.595,1369.463
				l42.039-86.324l42.038,86.324H1297.595z" clip-path="url(#SVGID_4_)"></path>
		</g>
		<g>
			<defs>
				<rect height="2904" width="2400" id="SVGID_5_"></rect>
			</defs>
			<clipPath id="SVGID_6_">
				<use overflow="visible" xlink:href="#SVGID_5_"></use>
			</clipPath>
			<path d="M1073.634,1520.534c-23.953,0-43.443,19.485-43.443,43.442c0,4.797,3.892,8.688,8.691,8.688
				c4.795,0,8.688-3.892,8.688-8.688c0-14.375,11.691-26.067,26.063-26.067s26.063,11.692,26.063,26.067
				c0,14.371-11.692,26.063-26.063,26.063c-4.8,0-8.688,3.893-8.688,8.688v21.721c0,4.8,3.888,8.69,8.688,8.69
				s8.688-3.892,8.688-8.69v-13.899c19.803-4.041,34.756-21.593,34.756-42.572
				C1117.078,1540.021,1097.585,1520.534,1073.634,1520.534 M1073.634,1642.172c-4.8,0-8.688,3.893-8.688,8.688
				c0,4.801,3.888,8.688,8.688,8.688s8.688-3.888,8.688-8.688C1082.322,1646.063,1078.434,1642.172,1073.634,1642.172" clip-path="url(#SVGID_6_)"></path>
		</g>
		<g>
			<defs>
				<rect height="2904" width="2400" id="SVGID_7_"></rect>
			</defs>
			<clipPath id="SVGID_8_">
				<use overflow="visible" xlink:href="#SVGID_7_"></use>
			</clipPath>
			<path d="M1339.634,1520.532c-28.778,0-52.196,23.416-52.196,52.194
				c0,28.66,13.754,39.5,22.856,46.674c6.16,4.855,8.315,6.896,8.315,10.707v8.421c0,3.995,3.24,7.239,7.236,7.239h28.439
				c3.996,0,7.235-3.244,7.235-7.239v-8.421c0-4,2.125-6.088,8.196-11.034c9.332-7.604,22.11-18.021,22.11-46.347
				C1391.829,1543.948,1368.414,1520.532,1339.634,1520.532 M1360.57,1607.849c-6.34,5.168-13.524,11.027-13.524,22.261v1.181
				h-13.96v-1.181c0-11.177-7.352-16.969-13.832-22.076c-8.523-6.721-17.34-13.668-17.34-35.306
				c0.004-20.799,16.919-37.72,37.72-37.72c20.796,0,37.717,16.921,37.717,37.72
				C1377.351,1594.172,1368.823,1601.129,1360.57,1607.849 M1345.382,1587.587h-10.856c-3.996,0-7.239,3.24-7.239,7.24
				c0,3.996,3.243,7.24,7.239,7.24h10.856c3.996,0,7.239-3.244,7.239-7.24C1352.621,1590.827,1349.378,1587.587,1345.382,1587.587
				 M1351.77,1651.129h-23.63c-3.995,0-7.239,3.239-7.239,7.239c0,3.996,3.244,7.235,7.239,7.235h23.63
				c3.993,0,7.237-3.239,7.237-7.235C1359.007,1654.368,1355.763,1651.129,1351.77,1651.129" clip-path="url(#SVGID_8_)"></path>
		</g>
	</g>
	<rect height="2904" width="2400" fill="none"></rect>
	<g>
		<path d="M1436.38,1311.4h-0.084v26.793h-2.901v-30.719h3.284l17.748,26.836h0.085v-26.836h2.902v30.719h-3.371L1436.38,1311.4z"></path>
		<path d="M1464.368,1327.741c-0.041,4.777,2.519,8.746,7.425,8.746c3.327,0,5.93-1.835,6.698-5.077h2.856
			c-1.278,4.181-3.924,7.38-9.556,7.38c-7.082,0-10.155-5.034-10.155-11.563c0-6.441,3.84-11.731,10.155-11.731
			c6.058,0,9.771,4.31,9.728,12.245H1464.368L1464.368,1327.741z M1478.789,1325.607c0-4.31-2.391-7.808-6.996-7.808
			c-4.521,0-6.911,3.626-7.425,7.808H1478.789z"></path>
		<path d="M1486.98,1327.741c-0.041,4.777,2.52,8.746,7.426,8.746c3.327,0,5.93-1.835,6.697-5.077h2.857
			c-1.279,4.181-3.924,7.38-9.556,7.38c-7.082,0-10.155-5.034-10.155-11.563c0-6.441,3.84-11.731,10.155-11.731
			c6.058,0,9.77,4.31,9.727,12.245H1486.98L1486.98,1327.741z M1501.402,1325.607c0-4.31-2.391-7.808-6.996-7.808
			c-4.522,0-6.911,3.626-7.426,7.808H1501.402z"></path>
		<path d="M1524.997,1307.476h2.561v30.719h-2.561v-3.882h-0.084c-1.494,2.9-4.863,4.479-7.681,4.479
			c-7.125,0-9.982-5.077-9.982-11.604c0-6.188,3.114-11.69,9.854-11.69c3.114,0,6.271,1.451,7.893,4.139V1307.476L1524.997,1307.476
			z M1517.531,1317.8c-5.29,0-7.766,4.48-7.551,10.026c0.043,5.546,3.241,8.661,7.551,8.661c4.82,0,7.466-4.097,7.466-9.429
			C1524.997,1322.066,1522.183,1317.8,1517.531,1317.8z"></path>
		<path d="M1534.3,1331.282c0.811,3.797,2.773,5.205,6.613,5.205c3.711,0,5.461-1.964,5.461-4.097
			c0-6.399-14.166-1.878-14.166-10.581c0-3.669,2.859-6.313,7.767-6.313c4.778,0,7.893,1.963,8.532,6.955h-2.604
			c-0.47-3.414-2.773-4.65-5.974-4.65c-3.241,0-4.991,1.536-4.991,3.797c0,6.017,14.166,2.262,14.166,10.751
			c0,4.225-3.8,6.442-9.003,6.442c-5.205,0-8.191-3.328-8.405-7.508L1534.3,1331.282L1534.3,1331.282z"></path>
	</g>
	<g>
		<path d="M1440.859,1384.956c-0.598,0.128-1.706,0.512-2.942,0.512c-2.519,0-3.926-1.108-3.926-4.394v-16.17h-3.115v-2.134h3.115
			v-6.144h2.56v6.144h4.139v2.134h-4.139v15.146c0,2.176,0.086,3.114,2.219,3.114c0.684,0,1.407-0.128,2.091-0.299
			L1440.859,1384.956L1440.859,1384.956z"></path>
		<path d="M1441.116,1373.82c0-6.442,3.412-11.647,10.239-11.647c6.91,0,10.238,5.163,10.238,11.647
			c0,6.998-4.053,11.646-10.238,11.646C1445.724,1385.382,1441.116,1381.543,1441.116,1373.82z M1451.355,1364.479
			c-5.377,0-7.51,4.564-7.51,9.343c0,5.504,2.604,9.344,7.51,9.344c5.375,0,7.509-4.608,7.509-9.344
			C1458.821,1368.616,1456.773,1364.479,1451.355,1364.479z"></path>
		<path d="M1492.188,1369.725c-0.896-3.283-3.156-5.246-6.569-5.246c-5.247,0-7.423,4.777-7.423,9.386
			c0,4.649,2.133,9.301,7.423,9.301c3.797,0,6.187-2.261,6.784-5.93h2.729c-0.896,4.905-3.968,8.233-9.515,8.233
			c-7.039,0-10.153-5.077-10.153-11.604c0-6.145,3.541-11.69,10.153-11.69c5.077,0,8.405,2.433,9.173,7.552h-2.603V1369.725z"></path>
		<path d="M1499.058,1384.871v-30.718h2.561v11.689c2.048-2.176,4.054-3.669,7.125-3.669c2.688,0,5.163,0.854,6.741,3.158
			c1.065,1.578,1.108,3.242,1.108,5.077v14.463h-2.561v-14.42c0-3.968-1.621-5.974-5.718-5.974c-3.155,0-5.332,2.049-6.144,4.31
			c-0.512,1.407-0.555,2.645-0.555,4.181v11.903L1499.058,1384.871L1499.058,1384.871z"></path>
		<path d="M1531.782,1371.986c0.938-0.085,2.519-0.343,3.371-0.726c0.854-0.384,0.938-1.537,0.938-2.304
			c0-2.604-1.537-4.479-5.504-4.479c-3.542,0-5.973,1.15-6.443,4.99h-2.602c0.383-5.205,4.266-7.295,9.088-7.295
			c4.479,0,8.021,1.75,8.021,6.869v12.031c0,2.005,0.512,2.475,2.688,1.707v2.005c-0.384,0.128-1.28,0.427-2.005,0.427
			c-0.428,0-0.77-0.042-1.152-0.128c-1.706-0.256-2.006-1.749-2.049-3.285c-2.133,2.39-5.033,3.669-8.231,3.669
			c-3.884,0-7.383-2.091-7.383-6.357c0-3.711,2.561-5.973,7.724-6.655L1531.782,1371.986z M1536.093,1373.266
			c-2.176,0.896-4.395,1.067-6.612,1.238c-3.884,0.299-6.229,1.707-6.229,4.693c0,2.688,2.347,3.968,4.778,3.968
			c4.054,0,8.063-1.963,8.063-6.442V1373.266L1536.093,1373.266z"></path>
		<path d="M1546.93,1384.871h-2.56v-22.1h2.56v3.071c2.049-2.176,4.055-3.669,7.125-3.669c2.688,0,5.163,0.854,6.741,3.158
			c1.066,1.578,1.109,3.242,1.109,5.077v14.463h-2.562v-14.42c0-3.968-1.621-5.974-5.717-5.974c-3.156,0-5.332,2.049-6.145,4.31
			c-0.512,1.408-0.555,2.645-0.555,4.181v11.902H1546.93z"></path>
		<path d="M1583.962,1362.771h2.562v19.966c0,5.93-1.963,11.178-10.367,11.178c-6.484,0-9.172-3.712-9.343-6.357h2.729
			c0.768,3.328,3.583,4.054,6.612,4.054c6.997,0,7.936-5.205,7.807-10.282c-1.621,2.688-4.776,4.138-7.892,4.138
			c-6.741,0-9.855-5.503-9.855-11.689c0-6.526,2.858-11.604,9.983-11.604c2.816,0,6.187,1.579,7.68,4.479h0.084V1362.771
			L1583.962,1362.771z M1576.496,1364.479c-4.309,0-7.508,3.113-7.551,8.66c-0.215,5.547,2.261,10.026,7.551,10.026
			c4.65,0,7.466-4.266,7.466-9.258C1583.962,1368.573,1581.317,1364.479,1576.496,1364.479z"></path>
		<path d="M1593.479,1374.418c-0.041,4.778,2.519,8.746,7.425,8.746c3.327,0,5.93-1.834,6.698-5.077h2.856
			c-1.279,4.181-3.924,7.38-9.556,7.38c-7.082,0-10.155-5.034-10.155-11.562c0-6.442,3.84-11.732,10.155-11.732
			c6.058,0,9.77,4.309,9.727,12.245H1593.479L1593.479,1374.418z M1607.898,1372.285c0-4.309-2.391-7.807-6.996-7.807
			c-4.522,0-6.911,3.625-7.426,7.807H1607.898z"></path>
	</g>
	<g>
		<path d="M875.953,1334.098h0.085l6.699-26.621h2.985l-8.063,30.718h-3.199l-7.125-27.134h-0.085l-7.125,27.134h-3.2l-7.936-30.718
			h2.901l6.613,26.621h0.085l7.125-26.621h3.242L875.953,1334.098z"></path>
		<path d="M885.511,1327.145c0-6.442,3.413-11.647,10.239-11.647c6.912,0,10.239,5.163,10.239,11.647
			c0,6.996-4.054,11.646-10.239,11.646C890.119,1338.705,885.511,1334.866,885.511,1327.145z M895.75,1317.8
			c-5.375,0-7.509,4.565-7.509,9.343c0,5.505,2.603,9.345,7.509,9.345c5.376,0,7.509-4.608,7.509-9.345
			C903.217,1321.939,901.168,1317.8,895.75,1317.8z"></path>
		<path d="M912.178,1338.193h-2.56v-22.101h2.56v4.138h0.085c1.407-3.541,3.498-4.735,7.21-4.735v2.772
			c-5.76-0.128-7.295,4.139-7.295,9.088V1338.193L912.178,1338.193z"></path>
		<path d="M922.588,1338.193v-30.719h2.561v19.113l10.836-10.495h3.498l-8.276,7.979l9.258,14.122h-2.858l-8.276-12.33l-4.181,3.968
			v8.362H922.588L922.588,1338.193z"></path>
		<path d="M943.538,1327.741c-0.043,4.777,2.517,8.746,7.423,8.746c3.328,0,5.93-1.835,6.699-5.077h2.857
			c-1.279,4.181-3.925,7.38-9.557,7.38c-7.082,0-10.154-5.034-10.154-11.563c0-6.441,3.84-11.731,10.154-11.731
			c6.059,0,9.77,4.31,9.727,12.245H943.538L943.538,1327.741z M957.958,1325.607c0-4.31-2.389-7.808-6.997-7.808
			c-4.521,0-6.912,3.626-7.423,7.808H957.958z"></path>
		<path d="M981.553,1307.476h2.561v30.719h-2.561v-3.882h-0.085c-1.493,2.9-4.864,4.479-7.68,4.479
			c-7.125,0-9.983-5.077-9.983-11.604c0-6.188,3.115-11.69,9.855-11.69c3.114,0,6.271,1.451,7.893,4.139V1307.476z M974.086,1317.8
			c-5.29,0-7.765,4.48-7.551,10.026c0.042,5.546,3.242,8.661,7.551,8.661c4.821,0,7.466-4.097,7.466-9.429
			C981.553,1322.066,978.737,1317.8,974.086,1317.8z"></path>
	</g>
	<g>
		<path d="M940.934,1381.457l5.803-18.686h2.603l-7.168,22.1h-2.729l-4.821-18.559h-0.085l-4.906,18.559h-3.072l-6.74-22.1h2.56
			l5.717,18.856l5.12-18.856h2.858L940.934,1381.457z"></path>
		<path d="M952.881,1374.418c-0.043,4.778,2.518,8.746,7.423,8.746c3.328,0,5.931-1.834,6.699-5.077h2.858
			c-1.28,4.181-3.926,7.38-9.558,7.38c-7.082,0-10.153-5.034-10.153-11.562c0-6.442,3.84-11.732,10.153-11.732
			c6.06,0,9.771,4.309,9.728,12.245H952.881L952.881,1374.418z M967.301,1372.285c0-4.309-2.389-7.807-6.997-7.807
			c-4.521,0-6.912,3.625-7.423,7.807H967.301z"></path>
		<path d="M974.215,1384.871v-30.718h2.561v30.718H974.215z"></path>
		<path d="M982.406,1384.871v-30.718h2.56v30.718H982.406z"></path>
	</g>
	<g>
		<path d="M766.856,1521.706h2.9v18.302c0,7.594,2.73,10.751,9.002,10.751c6.612,0,9.002-3.498,9.002-10.751v-18.302h2.901v19.156
			c0,7.978-3.967,12.372-11.903,12.372c-8.021,0-11.902-4.523-11.902-12.372V1521.706z"></path>
		<path d="M798.642,1552.423h-2.56v-22.1h2.56v3.071c2.049-2.177,4.054-3.668,7.125-3.668c2.688,0,5.162,0.853,6.741,3.155
			c1.066,1.579,1.109,3.243,1.109,5.077v14.463h-2.561v-14.42c0-3.968-1.62-5.973-5.717-5.973c-3.156,0-5.333,2.048-6.144,4.309
			c-0.513,1.408-0.556,2.646-0.556,4.182L798.642,1552.423L798.642,1552.423z"></path>
		<path d="M828.807,1539.539c0.938-0.086,2.518-0.341,3.371-0.727c0.854-0.384,0.938-1.535,0.938-2.305
			c0-2.602-1.536-4.479-5.503-4.479c-3.541,0-5.974,1.151-6.442,4.991h-2.603c0.384-5.206,4.267-7.296,9.087-7.296
			c4.479,0,8.021,1.749,8.021,6.868v12.031c0,2.006,0.512,2.475,2.688,1.706v2.005c-0.385,0.129-1.28,0.428-2.005,0.428
			c-0.428,0-0.769-0.043-1.152-0.128c-1.706-0.257-2.005-1.75-2.047-3.285c-2.133,2.391-5.035,3.669-8.234,3.669
			c-3.882,0-7.381-2.091-7.381-6.355c0-3.712,2.56-5.975,7.723-6.656L828.807,1539.539z M833.115,1540.819
			c-2.176,0.896-4.395,1.065-6.613,1.235c-3.882,0.299-6.229,1.707-6.229,4.693c0,2.688,2.347,3.967,4.778,3.967
			c4.054,0,8.063-1.962,8.063-6.441V1540.819z"></path>
		<path d="M843.911,1552.423h-2.561v-22.1h2.561v3.071c2.048-2.177,4.054-3.668,7.125-3.668c2.688,0,5.162,0.853,6.741,3.155
			c1.065,1.579,1.108,3.243,1.108,5.077v14.463h-2.56v-14.42c0-3.968-1.621-5.973-5.717-5.973c-3.158,0-5.333,2.048-6.145,4.309
			c-0.512,1.408-0.555,2.646-0.555,4.182L843.911,1552.423L843.911,1552.423z"></path>
		<path d="M865.245,1545.512c0.811,3.797,2.772,5.204,6.613,5.204c3.711,0,5.461-1.962,5.461-4.095
			c0-6.399-14.164-1.878-14.164-10.581c0-3.669,2.857-6.313,7.765-6.313c4.778,0,7.893,1.963,8.532,6.953h-2.604
			c-0.469-3.413-2.772-4.648-5.973-4.648c-3.242,0-4.992,1.535-4.992,3.797c0,6.016,14.164,2.262,14.164,10.751
			c0,4.224-3.797,6.441-9.002,6.441s-8.191-3.327-8.405-7.509H865.245L865.245,1545.512z"></path>
		<path d="M902.15,1549.011l5.802-18.688h2.603l-7.168,22.1h-2.729l-4.821-18.559h-0.085l-4.906,18.559h-3.071l-6.741-22.1h2.56
			l5.717,18.856l5.12-18.856h2.858L902.15,1549.011z"></path>
		<path d="M914.097,1541.97c-0.043,4.779,2.518,8.746,7.423,8.746c3.328,0,5.932-1.834,6.699-5.076h2.858
			c-1.28,4.182-3.925,7.381-9.558,7.381c-7.082,0-10.152-5.034-10.152-11.563c0-6.441,3.84-11.731,10.152-11.731
			c6.06,0,9.771,4.31,9.729,12.243H914.097z M928.517,1539.837c0-4.309-2.389-7.807-6.997-7.807c-4.521,0-6.91,3.626-7.423,7.807
			H928.517z"></path>
		<path d="M937.82,1552.423h-2.561v-22.1h2.561v4.139h0.085c1.408-3.541,3.498-4.735,7.21-4.735v2.772
			c-5.76-0.128-7.295,4.139-7.295,9.088V1552.423L937.82,1552.423z"></path>
		<path d="M949.297,1541.97c-0.043,4.779,2.518,8.746,7.423,8.746c3.328,0,5.931-1.834,6.698-5.076h2.858
			c-1.28,4.182-3.926,7.381-9.558,7.381c-7.082,0-10.154-5.034-10.154-11.563c0-6.441,3.841-11.731,10.154-11.731
			c6.06,0,9.771,4.31,9.728,12.243H949.297z M963.717,1539.837c0-4.309-2.389-7.807-6.997-7.807c-4.521,0-6.912,3.626-7.423,7.807
			H963.717z"></path>
		<path d="M987.354,1521.706h2.561v30.717h-2.561v-3.883h-0.085c-1.493,2.901-4.863,4.479-7.68,4.479
			c-7.125,0-9.982-5.075-9.982-11.604c0-6.187,3.114-11.688,9.854-11.688c3.115,0,6.272,1.45,7.893,4.139V1521.706z
			 M979.888,1532.03c-5.291,0-7.765,4.479-7.552,10.024c0.042,5.547,3.242,8.66,7.552,8.66c4.821,0,7.466-4.095,7.466-9.428
			C987.354,1536.297,984.539,1532.03,979.888,1532.03z"></path>
	</g>
	<g>
		<path d="M835.676,1577h2.561v30.804h-2.561v-12.245c-1.621,2.688-4.777,4.141-7.893,4.141c-6.74,0-9.855-5.504-9.855-11.69
			c0-6.526,2.858-11.604,9.983-11.604c2.814,0,6.186,1.578,7.68,4.479h0.085V1577z M828.21,1578.707
			c-5.291,0-7.765,4.479-7.552,10.026c0.042,5.545,3.242,8.659,7.552,8.659c4.821,0,7.466-4.096,7.466-9.429
			C835.676,1582.974,832.861,1578.707,828.21,1578.707z"></path>
		<path d="M858.46,1577h2.56v22.101h-2.56v-3.071c-1.365,1.535-3.243,3.67-7.125,3.67c-5.888,0-7.851-3.542-7.851-8.15V1577h2.56
			v14.507c0,3.797,1.664,5.887,5.674,5.887c4.225,0,6.741-3.498,6.741-8.361L858.46,1577L858.46,1577z"></path>
		<path d="M867.72,1588.646c-0.043,4.778,2.518,8.746,7.423,8.746c3.328,0,5.932-1.835,6.699-5.076h2.858
			c-1.28,4.181-3.925,7.382-9.558,7.382c-7.082,0-10.152-5.035-10.152-11.563c0-6.441,3.84-11.732,10.152-11.732
			c6.06,0,9.771,4.31,9.729,12.244H867.72L867.72,1588.646z M882.14,1586.515c0-4.309-2.389-7.808-6.997-7.808
			c-4.521,0-6.91,3.626-7.423,7.808H882.14z"></path>
		<path d="M890.248,1592.188c0.811,3.798,2.773,5.205,6.613,5.205c3.711,0,5.461-1.963,5.461-4.096
			c0-6.398-14.164-1.877-14.164-10.58c0-3.67,2.857-6.313,7.764-6.313c4.779,0,7.893,1.963,8.533,6.953h-2.604
			c-0.469-3.412-2.771-4.649-5.973-4.649c-3.242,0-4.991,1.536-4.991,3.797c0,6.016,14.164,2.262,14.164,10.751
			c0,4.226-3.797,6.443-9.002,6.443s-8.19-3.328-8.405-7.511H890.248z"></path>
		<path d="M916.53,1599.188c-0.599,0.127-1.706,0.512-2.944,0.512c-2.517,0-3.925-1.109-3.925-4.396v-16.17h-3.114V1577h3.114
			v-6.145h2.56V1577h4.14v2.134h-4.14v15.146c0,2.178,0.085,3.115,2.22,3.115c0.682,0,1.407-0.129,2.09-0.3V1599.188
			L916.53,1599.188z"></path>
		<path d="M919.218,1572.18v-3.797h2.815v3.797H919.218z M919.346,1599.101V1577h2.561v22.101H919.346z"></path>
		<path d="M925.746,1588.051c0-6.441,3.414-11.646,10.24-11.646c6.91,0,10.238,5.162,10.238,11.646
			c0,6.996-4.053,11.647-10.238,11.647C930.354,1599.612,925.746,1595.771,925.746,1588.051z M935.986,1578.707
			c-5.376,0-7.51,4.564-7.51,9.344c0,5.503,2.604,9.344,7.51,9.344c5.375,0,7.508-4.607,7.508-9.344
			C943.452,1582.845,941.404,1578.707,935.986,1578.707z"></path>
		<path d="M952.327,1599.101h-2.561V1577h2.561v3.073c2.048-2.179,4.054-3.67,7.125-3.67c2.688,0,5.162,0.854,6.741,3.155
			c1.065,1.58,1.108,3.244,1.108,5.077v14.464h-2.56v-14.421c0-3.968-1.621-5.973-5.717-5.973c-3.158,0-5.333,2.048-6.145,4.309
			c-0.512,1.409-0.555,2.646-0.555,4.182L952.327,1599.101L952.327,1599.101z"></path>
		<path d="M973.66,1592.188c0.811,3.798,2.772,5.205,6.613,5.205c3.711,0,5.461-1.963,5.461-4.096
			c0-6.398-14.164-1.877-14.164-10.58c0-3.67,2.857-6.313,7.765-6.313c4.778,0,7.893,1.963,8.533,6.953h-2.604
			c-0.469-3.412-2.771-4.649-5.973-4.649c-3.242,0-4.991,1.536-4.991,3.797c0,6.016,14.164,2.262,14.164,10.751
			c0,4.226-3.797,6.443-9.002,6.443s-8.191-3.328-8.405-7.511H973.66z"></path>
	</g>
	<g>
		<path d="M1436.38,1525.63h-0.084v26.793h-2.901v-30.717h3.284l17.748,26.834h0.085v-26.834h2.902v30.717h-3.371L1436.38,1525.63z"></path>
		<path d="M1464.368,1541.97c-0.041,4.779,2.519,8.746,7.425,8.746c3.327,0,5.93-1.834,6.698-5.076h2.856
			c-1.278,4.182-3.924,7.381-9.556,7.381c-7.082,0-10.155-5.034-10.155-11.563c0-6.441,3.84-11.731,10.155-11.731
			c6.058,0,9.771,4.31,9.728,12.243H1464.368z M1478.789,1539.837c0-4.309-2.391-7.807-6.996-7.807
			c-4.521,0-6.911,3.626-7.425,7.807H1478.789z"></path>
		<path d="M1503.45,1549.011l5.804-18.688h2.602l-7.166,22.1h-2.73l-4.821-18.559h-0.085l-4.906,18.559h-3.071l-6.741-22.1h2.561
			l5.718,18.856l5.12-18.856h2.856L1503.45,1549.011z"></path>
		<path d="M1526.021,1525.503v-3.797h2.814v3.797H1526.021z M1526.149,1552.423v-22.1h2.561v22.1H1526.149z"></path>
		<path d="M1551.108,1521.706h2.56v30.717h-2.56v-3.883h-0.085c-1.493,2.901-4.863,4.479-7.681,4.479
			c-7.125,0-9.982-5.075-9.982-11.604c0-6.187,3.114-11.688,9.854-11.688c3.115,0,6.271,1.45,7.893,4.139L1551.108,1521.706
			L1551.108,1521.706z M1543.642,1532.03c-5.29,0-7.764,4.479-7.551,10.024c0.043,5.547,3.242,8.66,7.551,8.66
			c4.822,0,7.468-4.095,7.468-9.428C1551.108,1536.297,1548.293,1532.03,1543.642,1532.03z"></path>
		<path d="M1560.622,1541.97c-0.041,4.779,2.519,8.746,7.425,8.746c3.327,0,5.93-1.834,6.698-5.076h2.856
			c-1.278,4.182-3.924,7.381-9.556,7.381c-7.082,0-10.155-5.034-10.155-11.563c0-6.441,3.84-11.731,10.155-11.731
			c6.058,0,9.771,4.31,9.728,12.243H1560.622z M1575.043,1539.837c0-4.309-2.39-7.807-6.996-7.807c-4.521,0-6.911,3.626-7.425,7.807
			H1575.043z"></path>
		<path d="M1591.813,1539.539c0.938-0.086,2.518-0.341,3.37-0.727c0.854-0.384,0.938-1.535,0.938-2.305
			c0-2.602-1.536-4.479-5.504-4.479c-3.542,0-5.974,1.151-6.442,4.991h-2.602c0.383-5.206,4.266-7.296,9.087-7.296
			c4.479,0,8.021,1.749,8.021,6.868v12.031c0,2.006,0.513,2.475,2.688,1.706v2.005c-0.385,0.129-1.279,0.428-2.005,0.428
			c-0.428,0-0.77-0.043-1.152-0.128c-1.706-0.257-2.005-1.75-2.048-3.285c-2.133,2.391-5.034,3.669-8.233,3.669
			c-3.883,0-7.382-2.091-7.382-6.355c0-3.712,2.562-5.975,7.723-6.656L1591.813,1539.539z M1596.121,1540.819
			c-2.176,0.896-4.396,1.065-6.613,1.235c-3.883,0.299-6.229,1.707-6.229,4.693c0,2.688,2.347,3.967,4.778,3.967
			c4.054,0,8.063-1.962,8.063-6.441V1540.819z"></path>
		<path d="M1605.765,1545.512c0.811,3.797,2.773,5.204,6.613,5.204c3.711,0,5.461-1.962,5.461-4.095
			c0-6.399-14.166-1.878-14.166-10.581c0-3.669,2.859-6.313,7.767-6.313c4.776,0,7.893,1.963,8.532,6.953h-2.604
			c-0.469-3.413-2.773-4.648-5.974-4.648c-3.241,0-4.991,1.535-4.991,3.797c0,6.016,14.166,2.262,14.166,10.751
			c0,4.224-3.799,6.441-9.003,6.441s-8.191-3.327-8.405-7.509H1605.765L1605.765,1545.512z"></path>
	</g>
	<g>
		<path d="M1440.859,1599.188c-0.598,0.127-1.706,0.512-2.942,0.512c-2.519,0-3.926-1.109-3.926-4.396v-16.17h-3.115V1577h3.115
			v-6.145h2.56V1577h4.139v2.134h-4.139v15.146c0,2.178,0.086,3.115,2.219,3.115c0.684,0,1.407-0.129,2.091-0.3L1440.859,1599.188
			L1440.859,1599.188z"></path>
		<path d="M1441.116,1588.051c0-6.441,3.412-11.646,10.239-11.646c6.91,0,10.238,5.162,10.238,11.646
			c0,6.996-4.053,11.647-10.238,11.647C1445.724,1599.612,1441.116,1595.771,1441.116,1588.051z M1451.355,1578.707
			c-5.377,0-7.51,4.564-7.51,9.344c0,5.503,2.604,9.344,7.51,9.344c5.375,0,7.509-4.607,7.509-9.344
			C1458.821,1582.845,1456.773,1578.707,1451.355,1578.707z"></path>
		<path d="M1484.294,1599.188c-0.596,0.127-1.705,0.512-2.942,0.512c-2.519,0-3.926-1.109-3.926-4.396v-16.17h-3.114V1577h3.114
			v-6.145h2.561V1577h4.139v2.134h-4.139v15.146c0,2.178,0.086,3.115,2.219,3.115c0.683,0,1.408-0.129,2.09-0.3L1484.294,1599.188
			L1484.294,1599.188z"></path>
		<path d="M1489.457,1599.101h-2.561V1577h2.561v4.14h0.086c1.407-3.542,3.499-4.735,7.21-4.735v2.771
			c-5.76-0.128-7.296,4.141-7.296,9.089V1599.101z"></path>
		<path d="M1501.105,1605.116c0.683,0.127,1.406,0.256,2.133,0.256c2.9,0,3.328-4.181,4.31-6.103l-8.575-22.271h2.858l7.082,18.985
			l7.082-18.985h2.773l-8.234,21.802c-2.09,5.546-3.456,9.002-6.996,9.002c-0.896,0-1.75-0.128-2.433-0.299V1605.116
			L1501.105,1605.116z"></path>
	</g>
	<rect height="2904" width="2400" fill="none"></rect>
</g>
</svg>
